<svg width="101" height="101" viewBox="0 0 101 101" fill="none" xmlns="http://www.w3.org/2000/svg">
<path d="M91.7702 43.969L91.696 44.1191L91.8066 44.2448L99.7903 53.3237L90.6052 61.4057L90.48 61.5158L90.5335 61.6737L94.0933 72.1756L83.9143 75.6216L83.7556 75.6753L83.745 75.8425L83.0003 87.4992L70.8291 86.7147L70.6627 86.704L70.5889 86.8535L65.4513 97.2612L55.5999 92.3976L55.4498 92.3235L55.3241 92.4341L46.9616 99.7902L39.1788 90.9425L39.0688 90.8174L38.911 90.8708L27.4597 94.7472L23.7699 83.8614L23.7162 83.7029L23.5492 83.6922L12.7913 83.0007L13.5134 71.7811L13.5241 71.6146L13.3746 71.5408L2.37199 66.1103L7.67786 55.3654L7.75196 55.2153L7.64144 55.0896L0.495908 46.963L8.67468 39.773L8.79992 39.6629L8.74639 39.505L4.88549 28.1141L16.4019 24.2142L16.5604 24.1605L16.5712 23.9934L17.2905 12.7937L28.1851 13.49L28.3514 13.5007L28.4252 13.3513L33.5266 3.02574L44.2106 8.30265L44.3607 8.37677L44.4864 8.26625L53.3241 0.495885L60.8075 9.00665L60.9176 9.13184L61.0755 9.07835L71.5198 5.53991L75.1761 16.3421L75.2298 16.5007L75.3968 16.5115L87.4984 17.2893L86.7352 29.1364L86.7245 29.3029L86.8741 29.3767L96.607 34.1767L91.7702 43.969Z" fill="#BE2130" stroke="white" stroke-width="0.5"/>
</svg>
